<?xml version='1.0' encoding='utf-8'?>
<svg xmlns="http://www.w3.org/2000/svg" version="1.1" id="Layer_1" x="0px" y="0px" viewBox="0 0 2306.835 1640.921" enable-background="new 0 0 2306.835 1640.921"> <g> <path stroke="#FFFFFF" stroke-width="3.8689" stroke-miterlimit="10" d="M1996.096,1331.107 c82.537-6.448,177.971,1.29,242.453-63.193c2.579-2.579,5.159-3.869,7.738-6.448c9.027-10.317,15.476-20.634,21.924-32.241 c1.29-2.579,2.579-6.448,3.869-9.027c5.158-14.186,7.738-29.662,6.448-45.138c-5.158,0-9.027-3.869-12.896-6.448 c-7.738-7.738-14.186-19.345-25.793-16.766c-39.979,10.317-73.51,30.952-114.779,36.11c-12.896,2.579-27.083,0-39.979,1.29 c-6.448,1.29-12.896,2.579-17.438,6.827c-0.121-2.532-0.241-5.064-0.362-7.597c-9.722,0.921-19.444,1.843-29.166,2.764 c4.73-0.05,2.496-6.639-0.524-7.763c-5.167-1.922-13.282,1.148-18.473,2.061c-13.516,2.377-27.032,4.754-40.549,7.131 c2.933-3.693,5.867-7.386,8.8-11.079c-19.273-5.913-41.456-0.87-56.273,12.802c0.897-3.496,1.794-6.992,2.691-10.488 c-26.678,1.472-52.471,9.21-78.264,15.658c-1.29,0-2.579,2.579-3.869,2.579c-25.793,5.159-43.848,20.634-64.482,34.82 c-19.345,5.159-36.11,16.765-43.848,34.82c-7.738,1.29-15.476,3.869-21.924,7.738c-21.924,14.186-33.531,36.11-56.22,45.889 c-1.214-37.46,27.105-67.219,36.278-102.014c2.629-9.974,3.713-20.411,2.001-30.638c16.222,0.696,10.504-26.49,9.92-35.4 c-2.297-14.539-1.007-28.725-2.297-42.911c0-2.579,1.29-6.448,2.579-7.738c14.186-10.317,19.345-28.372,6.448-41.269 c-1.29-1.29-2.579-5.159-2.579-6.448c1.29-2.579,3.869-2.579,6.448-2.579c0,0,1.29-1.29,1.29-2.579 c-1.29-5.159-6.448-7.738-9.028-11.607c-5.159-10.317,14.186-12.896,21.57-15.85c-6.733-6.144-11.969-13.913-15.136-22.46 c3.437,1.362,6.873,2.724,10.31,4.086c-11.585-34.127-29.64-67.658-27.061-103.768c0-6.448,5.159-7.738,10.279-3.63 c2.534-11.398-8.1-22.678-12.565-32.36c-5.115-11.092-8.372-23.036-9.573-35.192c5.409,4.332,11.676,7.587,18.33,9.522 c-7.761-19.587-15.499-41.511-15.499-62.146c0-1.29,3.869-3.869,6.747-3.04c-7.242-4.919-13.766-10.886-19.306-17.664 c6.518-0.019,13.036-0.038,19.554-0.057c-8.284-7.61-18.601-11.479-23.76-24.376c0-2.579-6.448-1.29-7.738-5.159 c-1.29-2.579-5.159-5.159-1.29-9.028c1.29,0,3.869,0,4.964-0.328c-2.18-2.203-3.72-5.01-4.402-8.034 c2.017,0.624,5.886-1.955,5.886-4.534c0-2.579-1.29-5.159-3.869-7.738c-10.317-10.317-20.634-19.345-30.952-28.372 c-2.579-2.579-3.869-5.159-3.869-7.738c0-12.896-5.159-24.503-12.896-33.531c-10.317-11.607-20.634-21.924-29.662-34.82 c-12.896-16.765-29.662-27.083-46.427-39.979c-12.896-10.317-21.924-24.503-25.793-39.979c-2.579-6.448-7.738-14.186-15.017-9.037 c2.121-3.86-0.078-6.885-3.038-9.018c-4.679-3.372-10.317,1.29-14.186,0c-3.869,0-5.159-6.448-6.448-11.607 c-2.579-5.159-5.159-11.607-10.317-12.896c-30.952-9.028-52.876-39.979-43.655-71.083c3.095,5.295,10.238,7.729,15.922,5.426 c-10.957-11.722-19.984-23.328-19.984-38.804c0-1.29,5.159-1.29,5.159-5.159c-2.579-11.607-5.159-21.924-7.51-32.2 c2.394,1.263,4.788,2.527,7.181,3.79c-6.238-25.566-18.691-49.599-35.965-69.45c5.488-0.879,11.283,0.717,15.548,4.28 c-19.233-26.357-34.709-56.019-64.371-72.785c-1.29-1.29-2.579-2.579-3.869-3.869c-14.186-6.448-27.083-15.476-33.531-29.662 c-3.869-10.317-5.159-21.924-9.027-32.241c-2.579-7.738-9.028-12.896-11.607-19.345c-14.186-32.241-29.662-61.903-51.586-87.696 c-1.29-1.29-3.869-2.579-6.448-3.869c-12.896-2.579-23.214,9.028-32.241,18.055c-11.607,14.186-18.055,30.952-21.924,49.007 c0,2.579,0,3.869,0,6.448c-3.869,19.345-3.869,38.689-6.448,58.034c-1.29,2.579-5.159,1.29-7.738,1.29 c-14.186,2.579-29.662,0-42.558,7.738c-9.028-3.869-16.765,2.579-24.503,6.448c-1.29,0-2.579-1.29-3.465-1.458 c0.886,1.458-0.404,4.038-2.983,5.327c-15.476,2.579-29.662,6.448-42.558,15.476c-12.896,7.738-15.476,20.634-21.924,33.531 c-2.579,3.869-9.028,0-12.896-1.29c-12.896-5.159-21.924-14.186-29.662-25.793c-23.214-14.186-47.717-21.924-73.51-30.952 c-3.869-1.29-9.028,0-12.896,2.579c-2.579,3.869-2.579,9.028-3.869,12.896c-1.29,33.531,1.29,68.351,11.607,100.592 c10.317,28.372,29.662,54.165,54.165,73.51c7.738,5.159,16.765,1.29,24.503-1.29c14.186-6.448,27.083-14.186,41.269-21.924 c19.345-12.896,38.689-23.214,59.324-34.82c9.028-5.159,19.345-9.028,30.952-6.448c11.607,3.869,15.476,15.476,12.896,27.083 c-10.317,41.269-18.055,81.248-33.531,119.937c-5.159,10.317-11.607,18.055-19.345,27.083 c-7.738,7.738-19.345,11.607-24.503,20.634c-2.579,3.869-1.29,9.028-1.29,14.186c2.579,14.186,3.869,29.662,3.869,43.848 c-1.29,11.607-9.027,20.634-12.896,32.241c-1.29,5.159,5.159,7.738,10.317,7.738c5.159,1.29,11.607,3.869,12.896,9.028 c3.869,15.476-11.607,25.793-25.793,28.372c-1.29,0-2.579,2.579-3.869,2.579c-63.193,19.345-107.041,65.772-158.627,105.751 c-21.924,16.765-46.427,28.372-71.864,34.343c7.865,2.605,15.73,5.21,23.595,7.816c-7.186,2.979-16.214,5.558-23.952,2.979 c-19.345-7.738-34.82-21.924-54.165-28.372c-19.345-6.448-39.979-2.579-59.324,3.869c-5.159,2.579-11.607,5.159-18.055,7.738 c-7.738,3.869-16.765,7.738-23.214,14.186c-1.29,2.579-3.869,3.869-6.448,6.448c-2.579,3.869-6.448,6.448-7.738,10.317 c-5.159,18.055-12.896,38.689-3.869,56.744c12.896,29.662,39.979,49.007,68.351,63.193c2.579,1.29,6.448,2.579,9.028,3.869 c33.531,10.317,67.062,10.317,100.592,5.159c18.055-1.29,34.82-10.317,52.875-12.896c27.083-2.579,52.875-3.869,79.958-5.159 c7.738-1.29,14.186-2.579,20.634-6.448c12.896-6.448,27.083,1.29,39.979,3.869c23.214,7.738,47.717,5.159,68.351-7.738 c3.869,2.579,6.448,6.448,10.317,10.317c1.29,1.29,3.869,2.579,5.159,2.579c7.738-3.869,11.607-12.896,19.345-18.055 c7.738-3.869,14.186-7.738,21.283-11.536c-3.572,10.002-8.577,19.489-14.83,28.074c15.75-13.622,38.487-11.881,56.6-20.446 c22.167-10.482,26.02-34.778,30.721-56.352c2.54-11.658,5.984-23.213,13.504-32.707c6.625-8.365,15.565-14.747,25.35-18.911 c22.562-9.601,49.476-6.816,71.62,2.725c5.316,2.29,9.734,5.813,8.971,12.143c-0.624,5.177-3.939,9.611-4.799,14.733 c-2.411,14.353,19.505,14.652,17.362,1.298c12.877,22.696,12.141,50.588,3.533,74.607c-7.495,19.268-19.102,37.323-33.288,52.798 c-7.738,1.29-14.186,3.869-21.924,7.738c-1.29,1.29-3.869,2.579-5.159,3.869c-9.027,10.317-12.896,24.503-21.924,34.82 c-12.896,12.896-29.662,20.634-46.427,27.083c-11.607,3.869-23.214,2.579-34.82,1.29c-2.579,0-5.159,1.29-7.738,2.579 c-5.159,3.869-6.448,11.607-11.607,15.476c-7.738,5.159-16.765,5.159-24.503,10.317c-5.159,3.869-11.607,7.738-8.374,16.234 c-10.97-3.337-25.156-0.758-29.026,10.849c-3.869,12.896-9.027,23.214-16.765,33.531c-2.579,5.159-3.869,11.607,1.29,16.765 c6.448,6.448,19.345,6.448,19.345,18.055c-15.476,21.924-25.793,46.427-33.64,72.146c-20.525-5.084-23.104,21.998-33.421,34.895 c-2.579,2.579-5.159,6.448-10.317,9.027c-2.579,1.29-3.869,5.159-3.869,7.738c2.579,12.896-7.738,21.924-10.317,33.531 c-1.29,6.448,0,12.896,3.869,18.055c2.579,2.579,5.159,7.738,2.579,11.607c-2.579,2.579-7.738,1.29-10.317,5.159 c5.159,7.738,14.186,12.896,19.345,20.634c5.159,9.028,10.317,16.765,15.476,25.793c3.869,9.027,7.738,19.345,2.579,29.662 c-7.738,12.896-25.793,27.083-13.931,42.085c2.042,2.582,6.704,2.608,9.774,1.419c15.764-6.104,31.239-11.263,45.425-20.29 c37.4-24.503,74.8-46.427,118.648-50.296c30.951-2.579,60.613,5.159,88.986,15.476c77.379,28.372,132.833,85.117,203.764,130.254 c16.765,10.317,33.531,19.345,51.586,27.083c19.345,7.738,38.689,11.607,59.324,10.317c30.952-2.579,60.613-6.448,91.565-14.186 c3.869-1.29,6.448-3.869,9.027-5.159c1.29-1.29,3.869,0,5.159-1.29c14.186-6.448,25.793-18.055,34.82-29.662 c7.738,0,15.476,0,21.924-5.159c11.607-9.028,12.896-23.214,19.345-34.82c6.448-10.317,19.345-20.634,30.439-10.56 c2.788-7.67,0.924-16.762-4.662-22.713c24.762-1.603,48.816-12.342,66.532-29.718c-4.812-0.776-9.625-1.552-14.437-2.328 c24.488-19.196,54.035-34.415,85.43-37.147c8.602-0.749,17.297-0.504,25.819,0.911c-4.818-8.36-14.144-13.871-23.793-14.049 c20.027-3.957,40.674-4.639,60.918-2.013c-2.336-2.493-4.672-4.986-7.008-7.48 C1997.615,1333.845,1994.55,1331.227,1996.096,1331.107z"/> <path stroke="#FFFFFF" stroke-width="3.8689" stroke-miterlimit="10" d="M312.785,1586.779c2.237,3.867,4.474,7.735,6.711,11.602 c-3.068,3.351-2.5,9.328,1.143,12.042s9.533,1.546,11.865-2.353c-2.75,3.158-0.553,8.511,3.164,10.44 c3.717,1.929,8.17,1.459,12.325,0.94c21.944-2.739,43.887-5.478,65.831-8.216c-0.074,6.888,8.867,10.578,15.513,8.769 c6.647-1.809,11.852-6.867,17.923-10.12c15.363-8.232,34.276-4.186,51.314-7.861c13.453-2.902,25.331-10.534,36.877-18.025 c14.149-9.18,28.543-18.572,38.627-32.256c1.617-2.195,3.71-4.032,6.169-5.21c8.937-4.281,14.241,2.972,19.519,8.307 c10.279,10.389,24.965,15.479,39.516,16.836c14.551,1.357,29.182-0.682,43.654-2.716c30.117-4.233,61.266,3.059,90.926-3.664 c29.66-6.724,58.449-16.787,87.806-24.733c22.801-6.171,46.27-11.188,66.98-22.549c28.412-15.587,49.238-41.744,69.271-67.217 c0.212-8.576,5.784-15.775,12.149-21.525s13.706-10.533,19.01-17.275c11.031-14.021,11.102-34.35,4.406-50.886 c-6.696-16.536-19.135-30.017-31.851-42.53l3.915-3.944c-9.59-2.464-19.503-3.666-29.404-3.568 c-6.975,0.069-14.597,0.6-20.228-3.516c-4.083-2.984-6.326-8.025-6.78-13.062c-0.455-5.036,0.702-10.091,2.353-14.871 c3.515-10.179,10.175-20.24,20.45-23.465c-1.138-8.724-0.987-18.473,4.212-25.571c3.076-4.2,7.927-6.872,10.848-11.181 c4.807-7.092,3.236-16.588,1.019-24.864c-2.217-8.276-4.875-17.197-1.746-25.173c1.847-4.709,5.564-8.553,7.091-13.376 c1.527-4.822-0.695-11.561-5.748-11.784c-1.84-0.081-3.635,0.746-5.474,0.639c-4.208-0.243-6.542-4.927-7.628-8.999 c-3.18-11.918-3.181-24.422-3.161-36.757c0.01-6.188,0.462-13.311,5.408-17.031c3.856-2.9,9.114-2.662,13.928-2.978 c13.015-0.853,25.172-6.61,36.602-12.893c11.43-6.283,22.659-13.262,35.171-16.945c12.512-3.683,26.846-3.649,37.73,3.538 c2.839-2.553,7.565-1.778,11.382-1.675c3.816,0.103,8.437-0.83,9.738-4.419c0.923-2.549-0.263-5.546,0.833-8.025 c0.8-1.809,2.626-2.908,4.347-3.883c9.825-5.566,20.908-11.063,31.935-8.632c3.66,0.807,7.15,2.475,10.891,2.695 c3.741,0.22,8.05-1.643,8.852-5.305c0.558-2.546-0.719-5.254-0.041-7.77c0.662-2.461,3.08-4.109,5.559-4.701 c2.479-0.593,5.067-0.346,7.615-0.286c19.314,0.454,42.137-7.333,50.756-24.623c18.571-8.923,25.194-30.812,40.845-44.213 c7.569-6.48,16.911-10.534,24.88-16.515c15.174-11.389,24.491-29.218,29.141-47.612c4.65-18.394,5.078-37.555,5.48-56.523 c0.128-6.035,1.324-12.627-1.104-18.153c-2.428-5.527-9.516-9.444-14.69-6.335c-2.132,1.281-3.588,3.503-5.759,4.717 c-2.171,1.214-5.733,0.618-6.033-1.852c7.845-11.163,7.12-27.587-1.679-38.015c-8.798-10.428-24.866-13.908-37.19-8.054 c-3.149,1.496-6.068,3.528-9.407,4.53c-4.591,1.378-9.506,0.682-14.3,0.648c-14.983-0.109-29.63,6.578-40.405,16.99 c-10.775,10.412-17.826,24.319-21.321,38.889c-3.25,13.547-3.738,28.197-11.034,40.065c-5.627,9.153-14.833,15.666-24.707,19.903 c-9.874,4.237-20.49,6.404-31.019,8.544c3.773-5.354,5.371-12.195,4.361-18.666c-13.946,3.552-26.978,10.632-37.548,20.398 c-6.843-5.582-16.856-6.964-24.955-3.442c-1.756-4.926,1.606-10.042,4.506-14.394c3.156-4.737,5.932-11.3,1.503-15.593 c-1.482-1.437-3.484-2.199-5.536-2.428c-8.519-0.951-17.255,3.613-21.555,10.963c-2.361,4.035-7.667,5.921-11.438,8.684 c-1.025,0.751-2.193,1.549-3.557,0.852c-1.065-0.544-1.592-1.801-1.382-2.978c0.478-2.68,2.845-3.905,4.754-5.45 c1.545-1.25,2.95-3.162,2.416-5.077c-2.092-1.416-4.873-1.474-7.295-0.752s-4.567,2.137-6.674,3.532 c-6.854,4.54-13.708,9.081-20.563,13.621c-6.4,4.239-13.157,8.608-20.805,9.272c-4.527,0.393-9.076-0.554-13.616-0.356 c-6.906,0.302-13.4,3.219-20.155,4.684c-9.471,2.054-19.289,1.227-28.981,1.24s-19.813,1.015-28.001,6.199 c-47.423,30.023-110.456,20.907-166.392,16.269c-31.181-2.585-57.939-25.413-73.872-52.341 c-7.808-13.196-13.57-27.927-14.288-43.244c-0.718-15.317,4.046-31.272,14.848-42.154c7.369-7.424,17.035-12.116,26.814-15.828 c23.397-8.88,49.834-12.796,73.368-4.287c14.553,5.262,27.139,14.933,41.489,20.723c14.35,5.791,32.489,6.846,43.751-3.766 l-16.377-6.759c22.073-6.769,42.767-18.002,60.468-32.824c31.379-26.275,65.266-49.952,98.589-73.713 c17.677-12.604,36.827-23.142,56.934-31.33c12.515-5.096,26.401-10.083,33.354-21.67c2.788-4.645,4.186-10.453,2.33-15.543 c-1.719-4.715-5.99-8.141-10.645-10.016c-3.359-1.353-6.932-2.01-10.536-2.466c-2.14-0.271-3.494-2.432-2.785-4.47l11.418-32.792 c0.561-11.831,0.213-23.653-2.683-35.138c-1.001-3.969-2.213-8.075-1.404-12.088c0.828-4.109,3.704-7.548,7.035-10.092 s7.152-4.353,10.773-6.464c15.051-8.777,26.741-23.165,32.251-39.694c6.569-19.704,12.527-39.229,19.14-58.919 c6.026-17.941,12.086-36.026,14.456-54.803c0.853-6.758,1.212-13.702-0.442-20.309c-1.654-6.608-5.557-12.899-11.538-16.158 c-6.566-3.578-14.577-3.074-21.91-1.61c-43.335,8.655-75.337,45.561-116.322,62.087c-7.633,3.078-16.016,5.455-24.029,3.572 c-11.554-2.715-19.231-13.34-25.841-23.198c-6.165-9.196-17.064-14.267-28.089-15.273c-11.025-1.006-22.065,1.04-33.075,2.201 c-11.01,1.161-22.543,1.36-32.69-3.07c-9.294-4.057-16.695-11.789-21.522-20.707c-5.488-10.14-7.811-21.639-11.675-32.502 c-5.283-14.85-13.547-28.633-24.155-40.29c-5.291-5.813-11.717-10.532-15.553-17.392c-3.837-6.861-7.337-14.101-12.972-19.581 c-5.635-5.48-14.095-8.903-21.475-6.197c-6.495,2.382-10.545,8.722-14.021,14.704c-26.098,44.918-47.232,94.128-50.316,145.986 c-0.77,12.956-8.073,24.531-16.386,34.498c-8.313,9.968-18.153,18.686-25.499,29.386c-10.776,15.697-15.525,34.639-23.367,51.989 c-6.422,14.208-15.175,28.239-15.05,43.83c-8.397,10.186-10.35,23.901-9.864,37.092s3.564,26.147,4.874,39.282 c2.66,26.685-2.617,55.072-19.352,76.027c-8.511,10.658-19.904,19.436-25.126,32.036c-17.492,42.206-43.951,80.059-64.145,121.042 c-6.078,12.336-12.146,25.329-11.873,39.078c0.195,9.8,3.337,20.767-2.526,28.622c-23.335,31.268-29.757,71.762-41.229,109.052 c-3.154,10.252-6.055,21.069-3.952,31.587c3.309,16.554,6.964,32.513,3.626,49.06c-3.339,16.548-9.4,32.437-13.029,48.923 c-4.574,20.776-5.223,42.188-5.854,63.453c-0.441,14.851-0.72,30.45,6.132,43.632c-4.02,70.061-7.576,141.651,5.327,210.631 c1.09,5.826,2.203,12.255-0.822,17.351c-3.176,5.35-10.21,7.441-16.345,6.405c-6.135-1.036-11.526-4.605-16.431-8.432 c-24.85-19.387-42.014-47.16-54.054-76.288c-12.04-29.128-19.403-59.924-28.046-90.234c-8.643-30.31-18.769-60.599-35.665-87.205 c-18.231-28.709-12.098-66.08-15.818-99.885c-3.339-30.351-11.368-60.181-23.712-88.109c-15.77-35.675-41.059-69.138-72.873-91.704 c-24.314-17.246-55.576-21.143-85.385-21.305c-9.735-0.053-20.392,0.583-27.594,7.132c-6.82,6.201-8.703,16.099-9.316,25.296 c-1.745,26.186,3.806,52.82,15.866,76.129c8.328,16.097,19.586,30.464,29.328,45.746c9.742,15.282,18.141,32.044,19.703,50.1 c5.408,62.508,29.961,123.146,30.818,185.882c0.27,19.775-1.981,39.524-1.589,59.297c0.392,19.772,3.649,40.068,13.959,56.944 c-1.936,24.409,7.792,47.413,18.173,69.589c4.902,10.471,9.964,20.921,16.444,30.496c6.227,9.201,13.69,17.487,21.127,25.74 c17.59,19.52,35.3,39.152,56.048,55.277c1.954-2.449,2.606-5.88,1.686-8.875C267.621,1577.087,288.794,1585.353,312.785,1586.779z"/> </g> </svg>