<?xml version='1.0' encoding='utf-8'?>
<svg xmlns="http://www.w3.org/2000/svg" version="1.1" width="600px" height="976px" viewBox="0 0 600 976"> <g id="layer1"> <g style="fill:rgb(0,0,0); fill-opacity:1.0; stroke-linejoin: miter"> <path d="M201.00092,217.12291C190.1393,220.25609,183.98154,228.35654,182.64153,241.42564C181.9901,246.76537,182.28398,249.84323,183.59862,253.16428C185.1339,256.94418,185.11809,257.96848,183.84349,259.4283C179.44194,264.36874,180.80174,272.12982,186.85197,278.3697C188.97893,280.67902,191.54015,284.36078,192.52737,286.76642C193.40262,289.05646,195.83945,293.41937,197.95761,296.29755C200.07413,299.28958,201.72842,302.73,201.7073,304.0955C201.62302,309.55777,196.18845,315.0513,180.7816,325.05753C158.9371,339.17606,159.75827,337.59525,158.46988,369.44604C157.38297,395.609,154.95218,412.98654,151.8059,417.71848C150.87614,418.95627,147.19432,421.51755,143.64018,423.1699C140.0844,424.93613,137.21135,426.71298,137.20433,427.1683C137.19731,427.6235,134.33136,428.94504,130.7843,430.14243C120.37434,433.5102,121.52944,439.78845,117.237434,356.51663C115.45856,324.277,113.92139,291.13043,113.59613,282.70233C113.31134,271.65717,112.69702,267.2086,111.57489,266.16672C110.33893,265.12326,97.60243,264.3574,67.6826,263.3265C44.361347,262.51135,-0.68646175,260.7915,-32.539093,259.61694C-64.39172,258.44226,-90.67363,257.6951,-90.90648,258.033C-91.25316,258.36905,-91.491745,303.32605,-91.53832,357.96094C-91.58483,412.59576,-92.07752,459.2562,-92.56782,461.525C-93.31202,465.4974,-93.77259,465.83176,-97.18646,465.77914L-101.05554,465.71945L-103.03786,542.52014C-104.91639,612.60675,-105.24934,619.4311,-106.972176,620.4288C-108.232735,620.9786,-114.594795,620.19745,-124.69458,618.2204C-147.04942,613.77765,-169.35364,613.43335,-183.86737,617.19324L-194.15123,619.76636L-196.23009,702.8258C-197.38972,748.4515,-198.09016,786.45795,-197.8766,787.3719C-197.22194,789.2032,-187.20601,789.24396,37.707993,789.41473C100.31038,789.47034,212.99231,789.72986,288.11432,789.8651C363.23593,790.0002,474.66617,790.24066,535.67535,790.27155C596.6865,790.1889,664.4061,790.5513,686.25507,790.8884L725.74274,791.49805L726.1097,767.7144C726.5102,741.7686,723.86835,706.4425,720.8366,696.379C719.86163,693.1769,715.88605,685.2616,712.11896,678.6017C708.3517,671.9418,703.5885,663.4452,701.59814,659.6583C699.60767,655.87146,693.8484,645.5384,688.7489,636.6951C683.7634,627.8537,677.6713,616.9464,675.1242,612.3541C668.8117,600.98816,662.30975,594.51355,645.8675,583.10504C626.269,569.71277,623.5817,566.8257,629.0704,565.2031C631.12933,564.5519,630.7983,563.8639,625.5361,558.2052C619.3791,551.5084,618.47394,551.15295,612.52313,553.22375C608.97614,554.421,608.52277,554.3002,605.8337,551.527L602.9207,548.52246L606.32263,541.9732C608.2012,538.2459,612.76404,530.235,616.5021,524.0322C620.354,517.8314,624.5614,510.72534,626.07935,508.24463C630.98706,500.01147,632.9945,480.5784,629.9523,471.19794C629.08386,468.4527,625.8646,463.16705,622.96216,459.47992C614.25464,448.4184,613.0364,446.2369,609.9764,437.99442C602.76776,418.30536,589.5607,411.15814,554.1017,407.65143C521.59796,404.41794,511.4577,405.0582,499.86765,411.1396C485.98233,418.43762,480.94327,427.80722,480.6429,447.2666C480.52695,454.77722,479.7529,460.6842,478.0754,466.1217C476.03903,472.6921,475.88828,475.08005,476.7092,480.8978C478.15634,490.36765,477.83224,496.6229,475.75375,505.92426C474.77475,510.34833,473.84995,518.6434,473.75864,524.56085C473.63388,532.64044,472.99997,536.8421,470.98642,541.933C468.49307,548.6103,468.49307,548.6103,470.62003,550.9195C471.96646,552.1923,477.62283,554.4423,484.6519,556.25824C491.1138,557.9515,498.3615,560.33984,500.732,561.62854C505.47455,564.0919,509.47284,570.52783,511.95306,579.44446C514.1114,587.104,518.08344,595.2468,523.5452,602.7297C526.3322,606.5289,527.7642,609.6242,527.4052,610.7569C525.98175,614.49115,513.7186,634.6764,510.70728,638.04456L507.6941,641.52673L507.75793,622.63293C507.69415,604.6475,507.4876,603.2785,504.53278,595.6068C500.80768,586.2156,492.80057,574.0267,488.29446,570.99774C486.37906,569.7161,481.61722,568.50446,476.39127,567.8547C466.16556,566.6724,461.41937,564.43634,458.31036,559.38007C455.2032,554.21014,456.0998,547.7359,462.10876,534.5113C468.2406,520.7193,469.26868,513.1091,466.89014,497.59238C463.56665,476.9388,460.0498,468.8031,452.15076,464.3557C446.2843,460.96423,440.84146,459.62817,426.29825,457.92407C411.9826,456.22327,396.93866,457.47095,391.31342,460.57117C386.8349,463.11987,380.66135,472.24435,377.10153,481.6367C374.73093,487.74655,372.86447,490.67734,368.4786,494.59348C365.47592,497.39267,362.00583,500.98138,360.9554,502.67267C359.09067,505.48944,359.08542,505.83087,361.2911,510.4179C363.05746,513.9737,363.68222,517.73944,363.79916,524.9123C364.04697,538.34735,367.39774,542.4967,380.1062,545.0832C386.46118,546.31964,389.15027,549.09283,389.8573,554.90875C390.5642,560.7247,388.21448,565.4692,380.453,574.2276C373.15564,582.424,362.251,603.08563,353.013,626.3908C351.4704,630.46466,349.47272,634.53156,348.77582,635.4312C347.96527,636.3294,345.50876,640.61676,343.27805,645.02155C340.22812,650.8934,336.5145,655.50275,329.00534,662.6717C323.34326,668.16174,317.9263,672.5172,316.78836,672.49963C314.74002,672.468,310.162,666.7061,301.6068,653.14276C298.71667,648.6591,296.04346,644.8615,295.9298,644.8598C295.70215,644.85626,291.0067,646.7188,285.5056,649.138C279.8927,651.4417,273.3659,653.959,270.85016,654.7168C268.3343,655.47485,265.58563,656.57056,264.77863,657.2411C261.438,659.8075,261.17877,661.8524,271.34354,593.2595C273.4976,579.0647,274.66223,569.9767,274.9391,566.79395C275.0598,566.34045,275.97546,566.01306,277.11523,565.91675C278.1394,565.9326,282.49,564.29236,286.6167,562.42126L294.18335,558.8955L291.8387,533.8181C288.05746,491.18948,288.07504,490.05154,291.12338,484.2936C292.5311,481.58328,298.79025,474.28152,305.03192,468.11758C317.40326,455.674,321.36542,449.70258,322.2868,441.6352C322.7001,436.97464,318.1409,407.8791,307.96158,352.06213C304.38586,332.99814,299.0254,326.3137,284.50674,323.01645C271.80203,320.20236,260.62384,314.3385,253.00513,306.48096C244.60207,297.81445,242.72725,293.9153,241.75789,282.97342C240.97408,274.76602,241.10542,273.62967,243.44453,269.56802L246.13222,265.0567L243.58858,260.23676C242.15663,257.14142,241.19221,253.25665,241.24141,250.07013C241.41707,238.6905,229.94183,222.57784,218.40138,218.07454C211.16043,215.23105,207.86212,215.06627,201.00092,217.12291 Z M286.26788,430.152C287.3968,438.13724,287.3669,440.07172,286.09225,441.5318C284.23642,443.7796,278.0422,446.87115,277.2579,446.0622C276.80966,445.60004,277.6694,441.51556,281.89667,425.7592C282.73883,422.81277,283.6861,420.43716,284.14117,420.44424C284.59637,420.4512,285.5539,424.7913,286.26788,430.152 Z M160.58183,461.22092C160.559,462.7004,159.80766,467.1279,158.83586,471.0969C157.86223,475.1794,156.63078,488.59164,156.07158,502.6972C155.52281,516.12006,154.56433,533.97565,153.98274,542.1621C153.07332,556.83136,153.18007,557.28827,155.34224,557.3217C157.84578,557.3603,163.12054,562.2222,163.9834,565.3089C164.30908,566.3383,166.00684,574.3322,167.80615,583.1246C170.44733,596.3687,173.30731,610.1857,177.01971,627.77203C177.22614,629.1409,176.72534,632.0927,175.66602,634.35284C173.30396,639.89374,156.06686,665.23816,154.34927,665.8946C153.54752,666.2237,149.67838,666.164,145.70248,665.6473L138.42998,664.85205L137.53171,634.561C135.50778,566.5767,135.13205,554.0502,134.58932,552.3345C134.37766,551.30676,133.51157,541.0493,132.77858,529.5417C132.04561,518.0341,130.7317,499.9157,129.98647,489.20493C128.96834,474.0505,128.92305,469.61057,130.07686,468.60397C131.92561,466.8115,158.70695,457.322,159.83446,458.02243C160.28612,458.25705,160.60466,459.74155,160.58183,461.22092 Z M132.42789,574.383C133.32071,575.535,133.29617,577.1281,132.45218,580.1884C131.2526,584.15375,131.69717,621.7226,133.34995,654.7571C133.78024,663.75586,133.64177,665.3474,132.28331,664.871C131.37814,664.5155,125.81621,663.51917,119.90923,662.7451C102.07825,660.1935,79.716446,656.2058,78.70802,655.1658C78.2599,654.7036,76.62843,649.78394,75.34895,644.18677C73.95564,638.5879,71.599625,628.99036,69.98934,622.7052C68.49105,616.5355,67.22206,610.2557,67.24489,608.7762C67.267715,607.2968,66.604324,606.0345,65.80769,606.02216C65.011185,606.00995,56.154263,604.6211,46.164707,602.8734C36.28898,601.12744,17.670216,597.9945,4.8409395,595.8613C-7.9882154,593.7284,-20.476063,591.6006,-22.970812,590.99304C-25.46556,590.3854,-28.75694,589.7654,-30.23625,589.74255C-32.62602,589.70557,-32.858807,590.0436,-32.22703,593.35425C-31.280132,598.3772,-27.700243,639.29535,-27.775743,644.18866C-27.835497,648.0577,-27.949327,648.05597,-31.807846,647.3134C-33.962997,646.8249,-38.378216,645.27704,-41.6555,643.74664C-44.932777,642.2164,-57.150852,637.361,-68.80698,632.96954C-80.463036,628.5783,-90.184586,624.2166,-90.51369,623.41473C-90.84108,622.4991,-90.353836,613.05927,-89.506,602.37274C-87.97671,584.4123,-87.72451,582.8226,-85.55001,582.0594C-84.17567,581.51135,-71.06618,580.234,-56.365322,579.0951C-41.664402,577.9562,-29.355024,576.89404,-29.010054,576.67175C-27.287336,575.67395,29.660383,573.36584,60.397907,573.0434C119.02622,572.4688,131.08865,572.65497,132.42789,574.383 Z M362.38922,675.25226C362.78644,679.0147,363.5197,683.1236,364.07123,684.2703C364.62262,685.4172,365.68854,690.1003,366.41656,694.55084C367.143,699.115,368.10907,702.886,368.45062,702.89124C368.79193,702.8965,370.52167,701.4435,372.2569,699.64905C375.84076,696.062,379.60345,688.2664,380.95172,682.0269C381.3266,679.8698,382.1513,678.0616,382.60638,678.06854C383.17548,678.07733,385.08707,679.5866,386.87796,681.54913C389.56863,684.2087,391.26334,685.03156,394.90494,685.0878C398.77408,685.1475,399.79117,685.61847,401.00247,688.2552C403.09793,692.61285,405.30496,704.4846,404.67288,708.5725C404.27872,711.9811,404.27872,711.9811,393.44693,713.1798C381.58746,714.59033,368.29254,713.13293,362.30865,709.9674C360.5019,709.0288,356.6557,707.48975,353.59723,706.532C350.53876,705.5742,348.0528,704.3976,348.06158,703.8286C348.07037,703.2595,346.85388,700.9645,345.18372,698.54834L342.4037,694.29395L345.19995,690.12573C349.0412,684.6076,352.31183,679.1945,355.93976,672.7625C357.58026,669.71454,359.54987,667.46844,360.34125,667.8221C361.13422,668.06195,361.9937,671.37616,362.38922,675.25226 Z"/> </g> <g style="fill:rgb(0,0,0); fill-opacity:1.0; stroke-linejoin: miter"> <path d="M132.90157,555.4476L124.32116,558.81165L128.85919,667.0253L142.16127,673.2268L132.91313,555.59467"/> </g> </g> </svg>