<?xml version="1.0" encoding="iso-8859-1"?>
<!-- Generator: Adobe Illustrator 19.0.0, SVG Export Plug-In . SVG Version: 6.00 Build 0)  -->
<svg version="1.1" id="Capa_1" xmlns="http://www.w3.org/2000/svg" xmlns:xlink="http://www.w3.org/1999/xlink" x="0px" y="0px"
	 viewBox="0 0 471.197 471.197" style="enable-background:new 0 0 471.197 471.197;" xml:space="preserve">
<linearGradient id="SVGID_1_" gradientUnits="userSpaceOnUse" x1="-66.283" y1="578.2719" x2="-7.71" y2="578.2719" gradientTransform="matrix(8 0 0 -8 516.4531 4861.7734)">
	<stop  offset="0" style="stop-color:#006DF0"/>
	<stop  offset="1" style="stop-color:#00E7F0"/>
</linearGradient>
<path style="fill:url(#SVGID_1_);" d="M231.221,471.197c-107.29-0.227-201.469-71.456-230.896-174.632
	c-1.201-4.252,1.273-8.672,5.525-9.873c1.432-0.404,2.949-0.401,4.379,0.009c19.834,5.667,40.364,8.527,60.992,8.496
	c123.653-0.141,223.859-100.347,224-224c0.031-20.628-2.829-41.158-8.496-60.992c-1.218-4.247,1.238-8.677,5.485-9.895
	c1.43-0.41,2.947-0.413,4.379-0.009c127.52,36.161,201.582,168.851,165.421,296.371
	C432.739,399.894,338.513,471.149,231.221,471.197L231.221,471.197z M19.973,305.669c41.121,116.678,169.042,177.928,285.72,136.807
	S483.621,273.433,442.5,156.756c-22.542-63.96-72.846-114.265-136.807-136.807c3.688,16.833,5.542,34.016,5.528,51.248
	c-0.15,132.486-107.514,239.85-240,240C53.989,311.211,36.806,309.357,19.973,305.669z"/>
<g>
</g>
<g>
</g>
<g>
</g>
<g>
</g>
<g>
</g>
<g>
</g>
<g>
</g>
<g>
</g>
<g>
</g>
<g>
</g>
<g>
</g>
<g>
</g>
<g>
</g>
<g>
</g>
<g>
</g>
</svg>
